<svg width="50" height="48" viewBox="0 0 50 48" fill="none" xmlns="http://www.w3.org/2000/svg">
<g filter="url(#filter0_d)">
<path d="M23.7657 0C17.278 0 12 5.27802 12 11.7657V28.2343C12 34.722 17.278 40 23.7657 40C30.2535 40 35.5315 34.722 35.5315 28.2343V11.7657C35.5315 5.27802 30.2535 0 23.7657 0ZM33.1316 28.2343C33.1316 33.3984 28.9299 37.6001 23.7657 37.6001C18.6016 37.6001 14.3999 33.3984 14.3999 28.2343V11.7657C14.3999 6.60156 18.6016 2.3999 23.7657 2.3999C28.9299 2.3999 33.1316 6.60156 33.1316 11.7657V28.2343Z" fill="#D4C17F"/>
<path d="M36.7314 0C36.0686 0 35.5315 0.537109 35.5315 1.19995V6.72302L36.7314 7.92297L37.9314 6.72302V1.19995C37.9314 0.537109 37.3943 0 36.7314 0Z" fill="#D4C17F"/>
<rect x="4.5" y="0.5" width="40.9314" height="39" stroke="black"/>
</g>
<defs>
<filter id="filter0_d" x="0" y="0" width="49.9314" height="48" filterUnits="userSpaceOnUse" color-interpolation-filters="sRGB">
<feFlood flood-opacity="0" result="BackgroundImageFix"/>
<feColorMatrix in="SourceAlpha" type="matrix" values="0 0 0 0 0 0 0 0 0 0 0 0 0 0 0 0 0 0 127 0"/>
<feOffset dy="4"/>
<feGaussianBlur stdDeviation="2"/>
<feColorMatrix type="matrix" values="0 0 0 0 0 0 0 0 0 0 0 0 0 0 0 0 0 0 0.25 0"/>
<feBlend mode="normal" in2="BackgroundImageFix" result="effect1_dropShadow"/>
<feBlend mode="normal" in="SourceGraphic" in2="effect1_dropShadow" result="shape"/>
</filter>
</defs>
</svg>
